<mxfile host="app.diagrams.net" modified="2023-05-07T15:28:56.799Z" agent="Mozilla/5.0 (Windows NT 10.0; Win64; x64) AppleWebKit/537.36 (KHTML, like Gecko) Chrome/112.0.0.0 Safari/537.36" etag="0vbZD6OWA7Ke2hUlk9HP" version="21.2.3" type="device">
  <diagram name="Página-1" id="0QnRBI6Mmd2OywZm-hB5">
    <mxGraphModel dx="1595" dy="637" grid="0" gridSize="10" guides="1" tooltips="1" connect="1" arrows="1" fold="1" page="0" pageScale="1" pageWidth="827" pageHeight="1169" math="0" shadow="0">
      <root>
        <mxCell id="0" />
        <mxCell id="1" parent="0" />
        <mxCell id="URRaBU26wXwI9gR6Stbr-1" value="&lt;font style=&quot;font-size: 9px;&quot;&gt;Usuario_concessionária&lt;/font&gt;" style="shape=umlActor;verticalLabelPosition=bottom;verticalAlign=top;html=1;outlineConnect=0;" vertex="1" parent="1">
          <mxGeometry x="-81" y="280" width="30" height="60" as="geometry" />
        </mxCell>
        <mxCell id="URRaBU26wXwI9gR6Stbr-12" value="&lt;font style=&quot;font-size: 10px;&quot;&gt;Visualizar&amp;nbsp; Vendas (anual)&lt;/font&gt;" style="ellipse;whiteSpace=wrap;html=1;" vertex="1" parent="1">
          <mxGeometry x="77" y="228" width="90" height="50" as="geometry" />
        </mxCell>
        <mxCell id="URRaBU26wXwI9gR6Stbr-13" value="&lt;font style=&quot;font-size: 10px;&quot;&gt;Visualizar&amp;nbsp; Vendas (mensal)&lt;/font&gt;" style="ellipse;whiteSpace=wrap;html=1;" vertex="1" parent="1">
          <mxGeometry x="77" y="171" width="90" height="50" as="geometry" />
        </mxCell>
        <mxCell id="URRaBU26wXwI9gR6Stbr-14" value="&lt;font style=&quot;font-size: 10px;&quot;&gt;CRUD Clientes&lt;/font&gt;" style="ellipse;whiteSpace=wrap;html=1;" vertex="1" parent="1">
          <mxGeometry x="77" y="342" width="90" height="50" as="geometry" />
        </mxCell>
        <mxCell id="URRaBU26wXwI9gR6Stbr-15" value="&lt;span style=&quot;font-size: 10px;&quot;&gt;Criar Venda&lt;/span&gt;" style="ellipse;whiteSpace=wrap;html=1;" vertex="1" parent="1">
          <mxGeometry x="77" y="285" width="90" height="50" as="geometry" />
        </mxCell>
        <mxCell id="URRaBU26wXwI9gR6Stbr-16" value="&lt;font style=&quot;font-size: 10px;&quot;&gt;CRUD Veiculos&lt;/font&gt;" style="ellipse;whiteSpace=wrap;html=1;" vertex="1" parent="1">
          <mxGeometry x="77" y="399.5" width="90" height="50" as="geometry" />
        </mxCell>
        <mxCell id="URRaBU26wXwI9gR6Stbr-17" value="&lt;font style=&quot;font-size: 10px;&quot;&gt;Cálculo de Financiamento&lt;/font&gt;" style="ellipse;whiteSpace=wrap;html=1;" vertex="1" parent="1">
          <mxGeometry x="77" y="457" width="90" height="50" as="geometry" />
        </mxCell>
        <mxCell id="URRaBU26wXwI9gR6Stbr-19" value="&lt;font style=&quot;font-size: 10px;&quot;&gt;Visualizar relatório de vendas&lt;/font&gt;" style="ellipse;whiteSpace=wrap;html=1;" vertex="1" parent="1">
          <mxGeometry x="77" y="114" width="90" height="50" as="geometry" />
        </mxCell>
        <mxCell id="URRaBU26wXwI9gR6Stbr-20" value="" style="endArrow=none;html=1;rounded=0;entryX=0.015;entryY=0.613;entryDx=0;entryDy=0;entryPerimeter=0;" edge="1" parent="1" target="URRaBU26wXwI9gR6Stbr-19">
          <mxGeometry width="50" height="50" relative="1" as="geometry">
            <mxPoint x="-51" y="276" as="sourcePoint" />
            <mxPoint x="74" y="150" as="targetPoint" />
          </mxGeometry>
        </mxCell>
        <mxCell id="URRaBU26wXwI9gR6Stbr-21" value="" style="endArrow=none;html=1;rounded=0;" edge="1" parent="1">
          <mxGeometry width="50" height="50" relative="1" as="geometry">
            <mxPoint x="-33" y="285" as="sourcePoint" />
            <mxPoint x="77" y="198" as="targetPoint" />
          </mxGeometry>
        </mxCell>
        <mxCell id="URRaBU26wXwI9gR6Stbr-22" value="" style="endArrow=none;html=1;rounded=0;" edge="1" parent="1">
          <mxGeometry width="50" height="50" relative="1" as="geometry">
            <mxPoint x="-24" y="302" as="sourcePoint" />
            <mxPoint x="77" y="252" as="targetPoint" />
          </mxGeometry>
        </mxCell>
        <mxCell id="URRaBU26wXwI9gR6Stbr-23" value="" style="endArrow=none;html=1;rounded=0;" edge="1" parent="1">
          <mxGeometry width="50" height="50" relative="1" as="geometry">
            <mxPoint x="-22" y="312" as="sourcePoint" />
            <mxPoint x="77" y="308" as="targetPoint" />
          </mxGeometry>
        </mxCell>
        <mxCell id="URRaBU26wXwI9gR6Stbr-24" value="" style="endArrow=none;html=1;rounded=0;" edge="1" parent="1">
          <mxGeometry width="50" height="50" relative="1" as="geometry">
            <mxPoint x="-24" y="325" as="sourcePoint" />
            <mxPoint x="77" y="367" as="targetPoint" />
          </mxGeometry>
        </mxCell>
        <mxCell id="URRaBU26wXwI9gR6Stbr-25" value="" style="endArrow=none;html=1;rounded=0;" edge="1" parent="1">
          <mxGeometry width="50" height="50" relative="1" as="geometry">
            <mxPoint x="-27" y="336" as="sourcePoint" />
            <mxPoint x="77" y="424" as="targetPoint" />
          </mxGeometry>
        </mxCell>
        <mxCell id="URRaBU26wXwI9gR6Stbr-26" value="" style="endArrow=none;html=1;rounded=0;" edge="1" parent="1">
          <mxGeometry width="50" height="50" relative="1" as="geometry">
            <mxPoint x="-31" y="363" as="sourcePoint" />
            <mxPoint x="77" y="481" as="targetPoint" />
          </mxGeometry>
        </mxCell>
        <mxCell id="URRaBU26wXwI9gR6Stbr-27" value="&lt;span style=&quot;font-size: 10px;&quot;&gt;Gerar Venda&lt;/span&gt;" style="ellipse;whiteSpace=wrap;html=1;" vertex="1" parent="1">
          <mxGeometry x="230" y="285" width="90" height="50" as="geometry" />
        </mxCell>
        <mxCell id="URRaBU26wXwI9gR6Stbr-28" value="" style="endArrow=none;dashed=1;html=1;dashPattern=1 3;strokeWidth=2;rounded=0;" edge="1" parent="1">
          <mxGeometry width="50" height="50" relative="1" as="geometry">
            <mxPoint x="167" y="312" as="sourcePoint" />
            <mxPoint x="229" y="310" as="targetPoint" />
          </mxGeometry>
        </mxCell>
        <mxCell id="URRaBU26wXwI9gR6Stbr-29" value="Administrador" style="shape=umlActor;verticalLabelPosition=bottom;verticalAlign=top;html=1;outlineConnect=0;" vertex="1" parent="1">
          <mxGeometry x="437" y="280" width="30" height="60" as="geometry" />
        </mxCell>
        <mxCell id="URRaBU26wXwI9gR6Stbr-35" value="&lt;span style=&quot;font-size: 10px;&quot;&gt;Cadastrar Usúario&lt;/span&gt;" style="ellipse;whiteSpace=wrap;html=1;" vertex="1" parent="1">
          <mxGeometry x="566" y="235" width="90" height="50" as="geometry" />
        </mxCell>
        <mxCell id="URRaBU26wXwI9gR6Stbr-36" value="&lt;span style=&quot;font-size: 10px;&quot;&gt;Gerenciar Permissóes&lt;/span&gt;" style="ellipse;whiteSpace=wrap;html=1;" vertex="1" parent="1">
          <mxGeometry x="566" y="335" width="90" height="50" as="geometry" />
        </mxCell>
        <mxCell id="URRaBU26wXwI9gR6Stbr-37" value="" style="endArrow=none;html=1;rounded=0;" edge="1" parent="1">
          <mxGeometry width="50" height="50" relative="1" as="geometry">
            <mxPoint x="484" y="294" as="sourcePoint" />
            <mxPoint x="566" y="260" as="targetPoint" />
          </mxGeometry>
        </mxCell>
        <mxCell id="URRaBU26wXwI9gR6Stbr-38" value="" style="endArrow=none;html=1;rounded=0;" edge="1" parent="1">
          <mxGeometry width="50" height="50" relative="1" as="geometry">
            <mxPoint x="483" y="321" as="sourcePoint" />
            <mxPoint x="566" y="359" as="targetPoint" />
          </mxGeometry>
        </mxCell>
      </root>
    </mxGraphModel>
  </diagram>
</mxfile>
